<svg xmlns="http://www.w3.org/2000/svg" viewBox="0 0 200 200" id="icn-aflc-melb">
	<g fill="none" fill-rule="evenodd">
		<path fill="#061A33" d="M168.003 46.601a204.135 204.135 0 00-7.3-2.393V38.43s-20.11-9.333-58.408-9.333c-38.296 0-58.407 9.333-58.407 9.333v5.776a202.45 202.45 0 00-7.302 2.395v39.155l8.756 9.666c8.005 54.688 46.712 73.028 55.606 75.075.582.135 1.347.271 1.347.271s.766-.136 1.35-.273c8.884-2.047 47.43-20.314 55.55-74.712l8.808-10.027V46.601z">
		</path>
		<path fill="#DE0316" d="M153.821 82.56l-.082-.022c-2.188 60.04-41.722 79.45-50.251 81.468-.517.122-1.193.247-1.193.247s-.674-.125-1.188-.245c-8.523-2.013-48.082-21.425-50.257-81.5-.027.006-.054.014-.083.022.762 62.768 41.657 82.876 50.34 84.927.514.122 1.188.246 1.188.246s.676-.124 1.193-.248c8.69-2.055 49.56-22.161 50.333-84.895">
		</path>
		<path fill="#DE0316" d="M90.042 104.374l9.008 25.634.005-12.857-5.528-16.253-.003.001-2.73-8.033-.752-2.213h-6.539l2.038 2.882v47.682l-1.913 2.85h8.308l-1.893-2.852z">
		</path>
		<path fill="#DE0316" d="M82.148 126.528c-1.12-1.156-2.1-2.456-2.857-3.878-.783-1.47-1.33-3.078-1.546-4.733a13.543 13.543 0 01.645-6.22 15.514 15.514 0 012.226-4.132 19.6 19.6 0 013.935-3.914v-6.067c-.06.033-.122.063-.183.096-.523.312-1.062.6-1.585.91-.476.284-.925.599-1.363.935a25.58 25.58 0 00-2.335 2.014 23.98 23.98 0 00-3.62 4.514 26.038 26.038 0 00-2.41 5.006c-.316.889-.614 1.783-.921 2.674-.26.75-.522 1.5-.795 2.244-.019.046-.064.122-.064.172 0 .06.055.147.074.202l.293.8c.086.231.164.464.245.698l1.072 3.11a26.779 26.779 0 001.813 4.098 24.22 24.22 0 003.32 4.675c.672.74 1.39 1.434 2.147 2.085.811.698 1.659 1.365 2.58 1.912.512.304 1.039.585 1.549.89v-.002c.062.034.123.066.183.1v-6.067a21.256 21.256 0 01-2.403-2.122m27.522 6.962a34.01 34.01 0 01-6.786.78 34.501 34.501 0 01-6.375-.487 31.618 31.618 0 01-5.473-1.45v5.144a39.976 39.976 0 006.636 1.308 42.33 42.33 0 007.782.143 40.34 40.34 0 007.412-1.232c.24-.064.477-.13.716-.199v-5.136a31.115 31.115 0 01-3.912 1.13M99.055 98.178v-4.796l-.502.042c-2.08.187-4.146.53-6.171 1.035l1.566 4.605a33.14 33.14 0 015.107-.886">
		</path>
		<path fill="#DE0316" d="M119.076 93.535l2.039-2.882h-6.54l-.753 2.213h.001l-2.728 8.033-.004-.001-5.527 16.254.004 12.857 9.008-25.635v36.842l-1.894 2.85h8.308l-1.91-2.849z">
		</path>
		<path fill="#DE0316" d="M123.716 106.637c.71.83 1.356 1.72 1.886 2.677l1.705-1.57 2.319-2.132c.226-.21.454-.418.68-.626-1.174-.978-2.32-1.991-3.488-2.98-.669-.567-1.326-1.146-2.024-1.683a29.188 29.188 0 00-2.15-1.504 46.7 46.7 0 00-1.304-.794 12.393 12.393 0 00-1.117-.602v.001l-.153-.08v5.971a20.771 20.771 0 013.646 3.322m2.517 16.928l-.632-.58c-1.141 2.069-2.798 3.85-4.635 5.319-.293.234-.592.46-.896.68v5.968c.05-.027.104-.05.154-.079v.002c.739-.338 1.438-.783 2.126-1.21a30.194 30.194 0 002.168-1.479c.706-.531 1.368-1.109 2.044-1.678.651-.55 1.299-1.105 1.945-1.661.598-.513 1.194-1.03 1.799-1.534l-1.507-1.387-2.566-2.361m-23.939 20.501l3.785-4.033h-7.57zm2.267-10.798l-.001-35.091s2.946.123 6.097.934l1.585-4.668a40.258 40.258 0 00-5.897-.999c-.597-.057-1.196-.1-1.796-.132l.012-5.774s3.604.026 4.974.177c1.368.15 3.628.91 3.628.91l.107-5.506H98.119l1.722 2.86.205 1.693v45.578c1.605.112 2.612.096 4.515.018M42.026 50.91a175.937 175.937 0 016.102-1.873c.462 4.246.926 8.494 1.387 12.74.094 1.292.14 1.937.232 3.228l.27-3.368c.489-4.514.977-9.025 1.469-13.54 2.057-.557 4.13-1.08 6.205-1.563v29.054c-1.852.434-2.776.664-4.618 1.144V58.813l-.272 4.58c-.503 4.604-1.007 9.208-1.509 13.813a166.4 166.4 0 00-3.279.918l-1.5-12.928-.27-4.468v17.918c-1.69.509-2.533.771-4.217 1.318V50.91zm17.587-4.818a193.47 193.47 0 019.704-1.918v4.744c-1.949.334-2.92.513-4.861.897v7.254c1.894-.375 2.842-.55 4.743-.878v4.666c-1.9.329-2.85.504-4.743.878v7.881c1.94-.384 2.912-.563 4.86-.898v4.51c-3.25.552-6.484 1.203-9.703 1.92V46.091zm11.643-2.242a164.58 164.58 0 014.883-.722v24.545a161.7 161.7 0 014.382-.541v4.508c-3.098.368-6.182.79-9.265 1.266V43.851zm16.979 22.688c1.348-.097 1.427-.999 1.427-4.097 0-3.098-.079-3.882-1.427-3.784-.474.035-.712.052-1.188.089v7.88c.476-.035.714-.054 1.188-.088zm-.08-12.581c1.268-.092 1.349-.681 1.349-3.818s-.04-3.805-1.348-3.71c-.444.032-.665.048-1.109.084v7.528l1.109-.084zm-5.937-11.554c2.146-.227 4.3-.412 6.453-.559 4.757-.51 5.471 3.201 5.512 7.025.022 1.996.3 5.314-1.864 6.478 2.666.859 2.062 5.314 2.063 7.355.004 4.017-.936 8-5.671 8.194-2.165.147-4.333.335-6.493.561V42.403zm28.277 19.962V41.543c1.969.084 2.953.138 4.918.27v20.94c0 3.096.079 3.804 1.465 3.907 1.387.105 1.467-.59 1.467-3.687V42.035c1.916.159 2.874.249 4.788.455v20.822c.098 4.757-1.022 8.225-6.374 7.888-5.27-.332-6.295-4.176-6.264-8.835m20.252-4.238c1.38.204 1.358-1.139 1.418-4.882.022-1.401.484-4.689-1.418-5.195-.457-.067-.684-.1-1.141-.165v10.077c.457.065.684.098 1.141.165zm-5.877-15.44c2.174.248 4.346.54 6.508.87 5.18.84 5.629 5.786 5.62 10.148-.007 2.65.268 6.666-2.317 8.377.72 3.812 1.441 7.623 2.159 11.435-1.898-.343-2.85-.502-4.754-.796-.629-3.39-1.258-6.778-1.89-10.165l-.59-.084v9.88c-1.892-.267-2.839-.39-4.736-.611V42.686zm13.625 2.081c2.069.39 3.1.601 5.16 1.049.677 3.26 1.353 6.522 2.028 9.784l.817 4.344V46.457a170.7 170.7 0 014.543 1.116V76.63a163.74 163.74 0 00-4.581-1.126c-.87-3.935-1.74-7.869-2.612-11.804l-.818-4.019v15.056c-1.811-.387-2.72-.57-4.537-.914V44.768zm14.458 3.31a192.78 192.78 0 019.537 2.832v4.744a162.93 162.93 0 00-4.755-1.478v7.254c1.862.552 2.79.841 4.64 1.44v4.666c-1.85-.6-2.778-.887-4.64-1.44v7.881c1.908.566 2.86.862 4.755 1.478v4.509a193.92 193.92 0 00-9.537-2.83V48.077zm-48.991 7.917c0-9.489 0-10.037-1.57-10.037-1.528 0-1.528.548-1.528 10.037 0 9.568 0 10.077 1.529 10.077 1.57 0 1.57-.509 1.57-10.077M97.647 69.17c-1.646-1.96-1.724-5.686-1.724-13.293 0-7.293.078-11.017 1.608-13.057.94-1.176 2.508-1.686 4.86-1.686 2.354 0 3.962.51 4.825 1.608 1.608 2 1.646 5.724 1.646 13.135 0 8.118-.038 11.646-1.686 13.45-.864.98-2.43 1.333-4.784 1.333-2.314 0-3.881-.43-4.745-1.49">
		</path>
	</g>
</svg>
