<svg xmlns="http://www.w3.org/2000/svg" viewBox="0 0 200 200" id="icn-aflc-port">
	<g fill="none">
		<path d="M45.166 25.36v97.793c0 5.972 2.84 11.69 7.6 15.293l47.734 36.178 47.734-36.178c4.76-3.608 7.6-9.326 7.6-15.293V25.36H45.166z" fill="#008AAB">
		</path>
		<path d="M48.349 28.542v94.611c0 4.982 2.369 9.753 6.337 12.758l45.814 34.722 45.814-34.722a16.098 16.098 0 006.337-12.758v-94.61H48.35z" fill="#FFF">
		</path>
		<path fill="#000105" d="M53.469 33.662h94.063v89.269H53.469zm79.461 105.963l-9.537 7.23v-19.64h9.537zm-13.827 10.484l-9.542 7.229v-30.122h9.542zm-27.658 7.229l-9.543-7.23v-22.892h9.543zm-13.832-10.484l-9.537-7.229v-12.41h9.537zm-23.347-19.638h9.52v9.155l-6.006-4.544a10.843 10.843 0 01-3.514-4.611zm46.234 36.985l-4.766-3.614v-33.371h9.537v33.37zm42.72-32.374l-6 4.55v-9.156h9.52a10.829 10.829 0 01-3.52 4.606z">
		</path>
		<g fill="#FFF">
			<path d="M98.109 103.62l-.631.138c-.067.017-.139-.027-.144-.094l-.044-.354c-.006-.055.005-.1.033-.127l1.035-.87h.504c.072 0 .127.067.127.139v4.622c0 .072-.055.138-.127.138h-.62a.14.14 0 01-.139-.138v-3.454h.006zm2.618 1.074v-.022c-.293-.16-.742-.554-.742-1.118 0-.798.692-1.318 1.561-1.318.897 0 1.589.52 1.589 1.318 0 .547-.449.935-.742 1.107v.027c.321.166.869.581.869 1.201 0 .786-.664 1.384-1.721 1.384-1.03 0-1.694-.598-1.694-1.384.005-.62.675-1.096.88-1.195zm.836 1.848c.398 0 .747-.265.747-.664 0-.32-.266-.653-.747-.764-.482.106-.748.438-.748.764-.005.399.355.664.748.664zm.653-2.95c0-.343-.293-.609-.67-.609-.343 0-.642.266-.642.61 0 .32.2.575.653.686.449-.106.659-.377.659-.687zm1.794 3.393l1.87-3.902h-1.898a.145.145 0 01-.139-.138v-.504c0-.072.067-.138.139-.138h2.994c.072 0 .138.066.138.138v.05l-2.142 4.51c-.05.117-.121.195-.243.195h-.532c-.088 0-.182-.023-.182-.139v-.072h-.006zm3.22-2.23c0-1.578.665-2.519 1.816-2.519s1.816.941 1.816 2.519c0 1.577-.665 2.518-1.816 2.518s-1.815-.94-1.815-2.518zm2.685 0c0-1.063-.315-1.672-.869-1.672-.553 0-.869.603-.869 1.672 0 1.073.316 1.671.87 1.671.553 0 .868-.598.868-1.671zm-4.898-57.095h-27.62v5.956h3.758v34.03h-3.758v5.95h7.5l2.214-5.95v-8.441h18.044l-2.214-5.95h-15.83V53.616h17.906c5.413 0 9.824 4.406 9.824 9.825a9.75 9.75 0 01-1.145 4.594l2.446 6.576a15.727 15.727 0 004.65-11.17c0-8.701-7.08-15.78-15.775-15.78z">
			</path>
			<path d="M123.077 101.777l-16.234-43.633h-5.58l-4.516 12.138h6.349l.958-2.568 8.114 21.803H95.939l2.729-7.334h-6.349l-7.29 19.594h-3.824v5.95H95.23v-5.95h-3.853l2.347-6.31h20.657l2.347 6.31h-3.853v5.95h14.026v-5.95z">
			</path>
		</g>
	</g>
</svg>
