<svg xmlns="http://www.w3.org/2000/svg" viewBox="0 0 200 200" id="icn-aflc-syd">
	<g fill="none" fill-rule="evenodd">
		<path fill="#FFF" d="M85.353 51.757l15.212 29.673 14.962-29.632h39.382c-1.99 4.169-51.9 108.624-54.519 114.108L46.164 51.757h39.19z">
		</path>
		<path fill="#EE1E31" d="M86.301 50.247l14.254 27.763 14.018-27.763h42.797l-32.718 68.335c-2.356-12.206 3.021-18.79 3.021-18.79s-7.49-1.1-13.837 4.894c-1.152-2.064-5.682-13.297-23.568-15.292 3.869 4.534 4.65 10.351 4.351 14.383-3.233-2.918-7.976-5.196-12.025-5.317 2.056 2.839 2.115 10.394 2.056 10.334-4.473-4.23-10.395-5.318-10.395-5.318.632 3.864 1.743 8.252.665 12.268-3.512-7.1-31.21-65.538-31.21-65.538l42.591.041z">
		</path>
		<path fill="#EE1E31" d="M100.57 134.924c-5.923 6.617-8.589 11.415-4.952 12.5 5.864 1.757 6.659-21.677 29.035-28.902l-24.268 50.989-9.689-20.603c.509-4.5 4.766-9.643 9.18-14.446 7.49-8.146 6.542-16.97 1.113-21.59-4.928-4.197-15.669-2.687-17.914 3.353.502.836 1.227-1.073 1.935-.698 1.317.698-2.024 2.813 0 3.871.819.39.892.713 1.549.852 2.943.62 2.812-3.044 6.385-3.147 1.92-.057 4.399 1.113 5.122 4.48.677 3.15-.556 6.765-5.233 10.44-1.217.957-4.261 2.473-6.893 7.12l-.388-1.007c2.77-6.057 13.21-8.201 11.624-16.44-.603-3.128-3.529-4.353-5.507-3.536-2.245.928-1.857 3.175-5.11 2.71-2.23 2.08-4.56 4.68-7.122 6.426-.41.056-.097-1.31-.078-1.625.763-2.454 1.527-4.475 2.4-6.891.65.854.384 2.248.273 3.723.668-.556 1.792-2.577 1.663-2.948-1.316-1.162-2.217-1.369-1.86-2.557 2.71-8.98 15.786-8.694 19.795-4.683 7.402 7.4 4.87 15.987-1.06 22.61">
		</path>
		<path fill="#000" d="M88.923 30.831v2.478h-2.539v2.6h2.147v2.355h-2.208v2.784h2.54v2.417h-5.164V30.831zm-24.3 10.395v-7.934c1.295-.03 2.344 1.526 2.344 4.036 0 3.24-1.59 4.003-2.344 3.898m-2.358-10.354l-.19-.04-.031 12.632c2.89.026 7.4.852 7.464-6.201.055-6.162-3.876-6.605-7.243-6.39m-6.834 4.03l1.497-4.072h2.723l-2.908 6.488-.061 6.146h-2.478v-6.146l-2.992-6.488h2.747zm22.409 2.758v-6.695h2.623V43.55h-2.379l-2.92-6.99v6.99h-2.526V30.966h2.428zm-29.142-6.366c-.682-.4-1.399-.616-2.198-.616-2.13 0-3.347 1.701-3.347 3.681 0 1.832.951 2.778 2.382 3.743.7.5 1.437.966 1.437 1.931 0 .834-.65 1.165-1.448 1.165-.732 0-1.253-.166-1.836-.566v2.364c.566.416 1.432.633 2.13.633 2.331 0 3.614-1.682 3.614-3.912 0-3.396-3.78-3.511-3.78-5.576 0-.766.431-1.135 1.197-1.135.683 0 1.35.27 1.849.702v-2.414zm108.473 0c-.683-.4-1.4-.616-2.197-.616-2.133 0-3.347 1.701-3.347 3.681 0 1.832.948 2.778 2.38 3.743.7.5 1.438.966 1.438 1.931 0 .834-.65 1.165-1.449 1.165-.732 0-1.254-.166-1.835-.566v2.364c.565.416 1.431.633 2.13.633 2.33 0 3.613-1.682 3.613-3.912 0-3.396-3.78-3.511-3.78-5.576 0-.766.433-1.135 1.198-1.135.682 0 1.348.27 1.85.702v-2.414zm-44.366 0c-.682-.4-1.397-.616-2.196-.616-2.132 0-3.348 1.701-3.348 3.681 0 1.832.951 2.778 2.383 3.743.7.5 1.437.966 1.437 1.931 0 .834-.65 1.165-1.45 1.165-.732 0-1.253-.166-1.835-.566v2.364c.566.416 1.43.633 2.13.633 2.331 0 3.613-1.682 3.613-3.912 0-3.396-3.78-3.511-3.78-5.576 0-.766.432-1.135 1.199-1.135.682 0 1.348.27 1.847.702v-2.414zm20.422 8.037l.66-4.612.737 4.612h-1.397zm2.133-8.367h-2.721l-2.921 12.586h2.625l.492-2.135h2.28l.54 2.135h2.695l-2.99-12.586zm10.768 6.696v-6.695h2.623V43.55h-2.377l-2.922-6.99v6.99h-2.526V30.966h2.428zm-27.766-6.695l1.347 8.023 1.347-8.023h2.212l1.543 8.023 1.082-8.023h2.743l-2.625 12.584h-2.23l-1.545-8.366-1.741 8.366h-2.28l-2.478-12.584zm-23.135 3.937l1.497-4.072h2.723l-2.908 6.488-.061 6.146H94v-6.146l-2.994-6.488h2.749z">
		</path>
	</g>
</svg>
